<svg width="30" height="30" viewBox="0 0 30 30" fill="none" xmlns="http://www.w3.org/2000/svg">
<path d="M1.09579 22.3165C0.504404 22.3165 0.0249949 22.7927 0.0249949 23.3802C0.0249949 23.9676 0.504404 24.4439 1.09579 24.4439H2.6276V26.8074C2.6276 28.3994 3.93145 29.6946 5.53405 29.6946H27.0684C28.6711 29.6946 29.9749 28.3994 29.9749 26.8074V3.23283C29.9749 1.64084 28.6711 0.345703 27.0684 0.345703H5.53405C3.9314 0.345703 2.6276 1.64089 2.6276 3.23283V5.59637H1.09579C0.504404 5.59637 0.0249949 6.07259 0.0249949 6.66005C0.0249949 7.24751 0.504404 7.72373 1.09579 7.72373H2.6276V13.9564H1.09579C0.504404 13.9564 0.0249949 14.4327 0.0249949 15.0201C0.0249949 15.6076 0.504404 16.0838 1.09579 16.0838H2.6276V22.3165H1.09579ZM27.8333 3.23283V26.8074C27.8333 27.227 27.4909 27.5672 27.0684 27.5672H10.3679V2.47306H27.0684C27.4909 2.47306 27.8333 2.81322 27.8333 3.23283ZM4.76919 16.0838H5.99116C6.58255 16.0838 7.06196 15.6076 7.06196 15.0201C7.06196 14.4327 6.58255 13.9564 5.99116 13.9564H4.76919V7.72378H5.99116C6.58255 7.72378 7.06196 7.24756 7.06196 6.6601C7.06196 6.07264 6.58255 5.59642 5.99116 5.59642H4.76919V3.23283C4.76919 2.81322 5.11163 2.47306 5.53405 2.47306H8.22633V27.5672H5.53405C5.11163 27.5672 4.76919 27.227 4.76919 26.8074V24.4438H5.99116C6.58255 24.4438 7.06196 23.9676 7.06196 23.3801C7.06196 22.7927 6.58255 22.3165 5.99116 22.3165H4.76919V16.0838Z" fill="#9DA4AF"/>
<path d="M27.0685 29.7188H5.53406C3.91766 29.7188 2.60261 28.4125 2.60261 26.8068V24.4681H1.09579C0.491557 24.4681 0 23.9798 0 23.3796C0 22.7794 0.491557 22.2911 1.09579 22.2911H2.60261V16.1083H1.09579C0.491557 16.1083 0 15.62 0 15.0198C0 14.4196 0.491557 13.9313 1.09579 13.9313H2.60261V7.7484H1.09579C0.491557 7.7484 0 7.26012 0 6.65991C0 6.05975 0.491557 5.57142 1.09579 5.57142H2.60261V3.23271C2.60261 1.62709 3.91766 0.320801 5.53406 0.320801H27.0685C28.6849 0.320801 30 1.62709 30 3.23271V26.8068C30 28.4125 28.6849 29.7188 27.0685 29.7188ZM1.09579 22.3409C0.519152 22.3409 0.0499906 22.8069 0.0499906 23.3797C0.0499906 23.9525 0.519152 24.4185 1.09579 24.4185H2.6526V26.8069C2.6526 28.3851 3.94521 29.6691 5.53406 29.6691H27.0685C28.6574 29.6691 29.95 28.3852 29.95 26.8069V3.23271C29.95 1.65445 28.6574 0.370458 27.0685 0.370458H5.53406C3.94521 0.370458 2.6526 1.65445 2.6526 3.23271V5.62103H1.09579C0.519152 5.62103 0.0499906 6.08706 0.0499906 6.65986C0.0499906 7.23266 0.519152 7.69869 1.09579 7.69869H2.6526V13.9809H1.09579C0.519152 13.9809 0.0499906 14.447 0.0499906 15.0198C0.0499906 15.5926 0.519152 16.0586 1.09579 16.0586H2.6526V22.3409H1.09579ZM27.0686 27.5914H10.343V2.44812H27.0685C27.504 2.44812 27.8584 2.80009 27.8584 3.23271V26.8068C27.8584 27.2395 27.5041 27.5914 27.0686 27.5914ZM10.3929 27.5418H27.0685C27.4765 27.5418 27.8084 27.2121 27.8084 26.8068V3.23271C27.8084 2.82745 27.4764 2.49778 27.0685 2.49778H10.3929V27.5418ZM8.25135 27.5914H5.53406C5.09854 27.5914 4.74421 27.2395 4.74421 26.8068V24.4185H5.99117C6.56781 24.4185 7.03698 23.9524 7.03698 23.3796C7.03698 22.8068 6.56781 22.3408 5.99117 22.3408H4.74421V16.0586H5.99117C6.56781 16.0586 7.03698 15.5926 7.03698 15.0198C7.03698 14.447 6.56781 13.9809 5.99117 13.9809H4.74421V7.69874H5.99117C6.56781 7.69874 7.03698 7.23271 7.03698 6.65991C7.03698 6.08711 6.56781 5.62108 5.99117 5.62108H4.74421V3.23271C4.74421 2.80009 5.09854 2.44812 5.53406 2.44812H8.25135V27.5914ZM4.7942 24.4682V26.8069C4.7942 27.2121 5.12608 27.5418 5.53406 27.5418H8.20136V2.49778H5.53406C5.12608 2.49778 4.7942 2.82745 4.7942 3.23271V5.57137H5.99117C6.59541 5.57137 7.08697 6.05965 7.08697 6.65986C7.08697 7.26007 6.59541 7.74835 5.99117 7.74835H4.7942V13.9313H5.99117C6.59541 13.9313 7.08697 14.4196 7.08697 15.0198C7.08697 15.62 6.59541 16.1083 5.99117 16.1083H4.7942V22.2912H5.99117C6.59541 22.2912 7.08697 22.7795 7.08697 23.3797C7.08697 23.9799 6.59541 24.4682 5.99117 24.4682H4.7942Z" fill="#9DA4AF"/>
<path d="M16.6576 21.3653C17.0913 21.5216 17.5646 21.263 17.6648 20.8157L17.7988 20.2171C17.8816 19.8473 17.6769 19.4754 17.3204 19.3408C16.5486 19.0494 15.8592 18.5536 15.3366 17.9059C14.6557 17.0619 14.3035 16.0419 14.3181 14.9565C14.3346 13.7306 14.8248 12.584 15.6985 11.7281C16.5722 10.8721 17.7334 10.4007 18.9681 10.4007C21.5323 10.4007 23.6183 12.473 23.6183 15.0201C23.6183 15.2867 23.5954 15.5539 23.5501 15.814C23.5118 16.0337 23.3719 16.1568 23.2918 16.2106C23.2111 16.2649 23.0425 16.349 22.8203 16.3022L22.116 16.1536C22.2607 15.7805 22.3404 15.3755 22.3404 14.9523C22.3404 13.1052 20.8275 11.6025 18.968 11.6025C17.1084 11.6025 15.5956 13.1052 15.5956 14.9523C15.5956 16.7994 17.1084 18.3022 18.968 18.3022C19.4903 18.3022 19.9853 18.1836 20.4271 17.9722L22.3755 18.3831C23.1148 18.5391 23.8666 18.3931 24.4924 17.9722C25.1172 17.552 25.532 16.9143 25.6605 16.1764C25.7264 15.797 25.76 15.4079 25.76 15.0201C25.76 13.218 25.0535 11.5238 23.7707 10.2495C22.4879 8.97519 20.7823 8.27349 18.9681 8.27344C18.968 8.27344 18.9681 8.27344 18.9681 8.27344C17.167 8.27344 15.4716 8.96248 14.1947 10.2135C12.9174 11.4649 12.2008 13.1392 12.1767 14.9281C12.1557 16.4902 12.6844 18.0201 13.6654 19.2362C14.449 20.2075 15.491 20.9449 16.6576 21.3653ZM18.968 16.1748C18.2894 16.1748 17.7373 15.6264 17.7373 14.9523C17.7373 14.2782 18.2894 13.7297 18.968 13.7297C19.6467 13.7297 20.1988 14.2781 20.1988 14.9523C20.1988 15.6264 19.6467 16.1748 18.968 16.1748Z" fill="#9DA4AF"/>
<path d="M16.9182 21.4358C16.9182 21.4358 16.9182 21.4358 16.9182 21.4358C16.8267 21.4357 16.7361 21.4199 16.649 21.3885C15.4691 20.9633 14.4306 20.2243 13.6459 19.2514C12.6613 18.0309 12.1306 16.4952 12.1517 14.9275C12.1759 13.132 12.8952 11.4515 14.1771 10.1955C15.4588 8.93982 17.1603 8.24829 18.9681 8.24829C20.789 8.24829 22.5008 8.95268 23.7883 10.2316C25.0759 11.5106 25.7849 13.2111 25.7849 15.0197C25.7849 15.4088 25.7513 15.7992 25.685 16.1803C25.5554 16.9248 25.1368 17.5683 24.5064 17.9924C24.0433 18.3038 23.507 18.4685 22.9552 18.4685C22.7603 18.4685 22.5635 18.4478 22.3703 18.4071L20.4302 17.9979C19.9716 18.2161 19.4796 18.3267 18.968 18.3267C17.0946 18.3267 15.5706 16.8129 15.5706 14.952C15.5706 13.0912 17.0946 11.5773 18.968 11.5773C20.8413 11.5773 22.3654 13.0912 22.3654 14.952C22.3654 15.3587 22.2928 15.7566 22.1497 16.135L22.8255 16.2776C22.8669 16.2863 22.9087 16.2908 22.9496 16.2908C23.1045 16.2907 23.2216 16.2275 23.2777 16.1898C23.3545 16.1382 23.4888 16.02 23.5254 15.8095C23.5704 15.5509 23.5933 15.2852 23.5933 15.0198C23.5933 12.4864 21.5184 10.4254 18.968 10.4253C17.7399 10.4253 16.5849 10.8942 15.716 11.7455C14.8471 12.5968 14.3595 13.7372 14.3431 14.9566C14.3285 16.0362 14.6788 17.0506 15.3561 17.8901C15.8737 18.5319 16.556 19.0254 17.3293 19.3173C17.7013 19.4579 17.9091 19.8384 17.8232 20.2222L17.6891 20.8209C17.6094 21.1772 17.2852 21.4358 16.9182 21.4358ZM18.9681 8.29795C17.1736 8.29795 15.4846 8.98441 14.2123 10.2309C12.9397 11.4776 12.2257 13.1458 12.2018 14.9282C12.1808 16.4844 12.7075 18.0088 13.6849 19.2204C14.4639 20.1861 15.4948 20.9197 16.6661 21.3418C16.7477 21.3712 16.8325 21.3861 16.9182 21.3862C17.2619 21.3862 17.5656 21.1439 17.6403 20.8102L17.7744 20.2115C17.8549 19.852 17.6602 19.4955 17.3115 19.3638C16.53 19.0688 15.8403 18.5699 15.3171 17.9212C14.6325 17.0726 14.2784 16.0472 14.2931 14.9559C14.3097 13.7234 14.8026 12.5707 15.6809 11.7102C16.5592 10.8496 17.7267 10.3757 18.9681 10.3757C21.546 10.3757 23.6433 12.459 23.6433 15.0198C23.6433 15.288 23.6202 15.5566 23.5747 15.8179C23.5349 16.0466 23.3892 16.1749 23.3058 16.2309C23.2449 16.2718 23.1178 16.3404 22.9496 16.3404C22.9052 16.3404 22.8599 16.3356 22.8151 16.3262L22.0821 16.1716L22.0927 16.1444C22.2405 15.7636 22.3154 15.3624 22.3154 14.952C22.3154 13.1186 20.8138 11.627 18.968 11.627C17.1222 11.627 15.6206 13.1186 15.6206 14.952C15.6206 16.7854 17.1222 18.2771 18.968 18.2771C19.475 18.2771 19.9623 18.1668 20.4163 17.9495L20.4239 17.9458L20.4323 17.9475L22.3807 18.3584C22.5706 18.3985 22.7639 18.4188 22.9552 18.4188C23.497 18.4188 24.0237 18.2571 24.4784 17.9513C25.0975 17.5349 25.5086 16.9029 25.6358 16.1718C25.7016 15.7935 25.735 15.4059 25.735 15.0197C25.735 13.2243 25.0311 11.5363 23.753 10.2667C22.4749 8.99717 20.7757 8.298 18.9681 8.29795ZM18.968 16.1994C18.2755 16.1994 17.7122 15.6399 17.7122 14.9521C17.7122 14.2643 18.2756 13.7046 18.968 13.7046C19.6604 13.7046 20.2238 14.2642 20.2238 14.9521C20.2238 15.6399 19.6604 16.1994 18.968 16.1994ZM18.968 13.7543C18.3031 13.7543 17.7622 14.2916 17.7622 14.9521C17.7622 15.6125 18.3031 16.1498 18.968 16.1498C19.6329 16.1498 20.1738 15.6125 20.1738 14.9521C20.1738 14.2916 19.6328 13.7543 18.968 13.7543Z" fill="#9DA4AF"/>
</svg>
