<svg width="50" height="50" viewBox="0 0 50 50" fill="none" xmlns="http://www.w3.org/2000/svg">
<g opacity="0.4">
<circle cx="48.3333" cy="48.3334" r="1.66667" fill="white"/>
<circle cx="41.6667" cy="48.3334" r="1.66667" fill="white"/>
<circle cx="35" cy="48.3334" r="1.66667" fill="white"/>
<circle cx="28.3333" cy="48.3334" r="1.66667" fill="white"/>
<circle cx="21.6667" cy="48.3334" r="1.66667" fill="white"/>
<circle cx="15" cy="48.3334" r="1.66667" fill="white"/>
<circle cx="8.33329" cy="48.3334" r="1.66667" fill="white"/>
<circle cx="1.66667" cy="48.3334" r="1.66667" fill="white"/>
<circle cx="48.3333" cy="41.6667" r="1.66667" fill="white"/>
<circle cx="41.6667" cy="41.6667" r="1.66667" fill="white"/>
<circle cx="35" cy="41.6667" r="1.66667" fill="white"/>
<circle cx="28.3333" cy="41.6667" r="1.66667" fill="white"/>
<circle cx="21.6667" cy="41.6667" r="1.66667" fill="white"/>
<circle cx="15" cy="41.6667" r="1.66667" fill="white"/>
<circle cx="8.33329" cy="41.6667" r="1.66667" fill="white"/>
<circle cx="1.66667" cy="41.6667" r="1.66667" fill="white"/>
<circle cx="48.3333" cy="34.9999" r="1.66667" fill="white"/>
<circle cx="41.6667" cy="34.9999" r="1.66667" fill="white"/>
<circle cx="35" cy="34.9999" r="1.66667" fill="white"/>
<circle cx="28.3333" cy="34.9999" r="1.66667" fill="white"/>
<circle cx="21.6667" cy="34.9999" r="1.66667" fill="white"/>
<circle cx="15" cy="34.9999" r="1.66667" fill="white"/>
<circle cx="8.33329" cy="34.9999" r="1.66667" fill="white"/>
<circle cx="1.66667" cy="34.9999" r="1.66667" fill="white"/>
<circle cx="48.3333" cy="28.3334" r="1.66667" fill="white"/>
<circle cx="41.6667" cy="28.3334" r="1.66667" fill="white"/>
<circle cx="35" cy="28.3334" r="1.66667" fill="white"/>
<circle cx="28.3333" cy="28.3334" r="1.66667" fill="white"/>
<circle cx="21.6667" cy="28.3334" r="1.66667" fill="white"/>
<circle cx="15" cy="28.3334" r="1.66667" fill="white"/>
<circle cx="8.33329" cy="28.3334" r="1.66667" fill="white"/>
<circle cx="1.66667" cy="28.3334" r="1.66667" fill="white"/>
<circle cx="48.3333" cy="21.6667" r="1.66667" fill="white"/>
<circle cx="41.6667" cy="21.6667" r="1.66667" fill="white"/>
<circle cx="35" cy="21.6667" r="1.66667" fill="white"/>
<circle cx="28.3333" cy="21.6667" r="1.66667" fill="white"/>
<circle cx="21.6667" cy="21.6667" r="1.66667" fill="white"/>
<circle cx="15" cy="21.6667" r="1.66667" fill="white"/>
<circle cx="8.33329" cy="21.6667" r="1.66667" fill="white"/>
<circle cx="1.66667" cy="21.6667" r="1.66667" fill="white"/>
<circle cx="48.3333" cy="14.9999" r="1.66667" fill="white"/>
<circle cx="41.6667" cy="14.9999" r="1.66667" fill="white"/>
<circle cx="35" cy="14.9999" r="1.66667" fill="white"/>
<circle cx="28.3333" cy="14.9999" r="1.66667" fill="white"/>
<circle cx="21.6667" cy="14.9999" r="1.66667" fill="white"/>
<circle cx="15" cy="14.9999" r="1.66667" fill="white"/>
<circle cx="8.33329" cy="14.9999" r="1.66667" fill="white"/>
<circle cx="1.66667" cy="14.9999" r="1.66667" fill="white"/>
<circle cx="48.3333" cy="8.33341" r="1.66667" fill="white"/>
<circle cx="41.6667" cy="8.33341" r="1.66667" fill="white"/>
<circle cx="35" cy="8.33341" r="1.66667" fill="white"/>
<circle cx="28.3333" cy="8.33341" r="1.66667" fill="white"/>
<circle cx="21.6667" cy="8.33341" r="1.66667" fill="white"/>
<circle cx="15" cy="8.33341" r="1.66667" fill="white"/>
<circle cx="8.33329" cy="8.33341" r="1.66667" fill="white"/>
<circle cx="1.66667" cy="8.33341" r="1.66667" fill="white"/>
<circle cx="48.3333" cy="1.66667" r="1.66667" fill="white"/>
<circle cx="41.6667" cy="1.66667" r="1.66667" fill="white"/>
<circle cx="35" cy="1.66667" r="1.66667" fill="white"/>
<circle cx="28.3333" cy="1.66667" r="1.66667" fill="white"/>
<circle cx="21.6667" cy="1.66667" r="1.66667" fill="white"/>
<circle cx="15" cy="1.66667" r="1.66667" fill="white"/>
<circle cx="8.33329" cy="1.66667" r="1.66667" fill="white"/>
<circle cx="1.66667" cy="1.66667" r="1.66667" fill="white"/>
</g>
</svg>
