<svg width="50" height="50" viewBox="0 0 50 50" fill="none" xmlns="http://www.w3.org/2000/svg">
<circle cx="48.3333" cy="48.3334" r="1.66667" fill="#1B60C0"/>
<circle cx="41.6667" cy="48.3334" r="1.66667" fill="#1B60C0"/>
<circle cx="35" cy="48.3334" r="1.66667" fill="#1B60C0"/>
<circle cx="28.3333" cy="48.3334" r="1.66667" fill="#1B60C0"/>
<circle cx="21.6667" cy="48.3334" r="1.66667" fill="#1B60C0"/>
<circle cx="15" cy="48.3334" r="1.66667" fill="#1B60C0"/>
<circle cx="8.33329" cy="48.3334" r="1.66667" fill="#1B60C0"/>
<circle cx="1.66667" cy="48.3334" r="1.66667" fill="#1B60C0"/>
<circle cx="48.3333" cy="41.6667" r="1.66667" fill="#1B60C0"/>
<circle cx="41.6667" cy="41.6667" r="1.66667" fill="#1B60C0"/>
<circle cx="35" cy="41.6667" r="1.66667" fill="#1B60C0"/>
<circle cx="28.3333" cy="41.6667" r="1.66667" fill="#1B60C0"/>
<circle cx="21.6667" cy="41.6667" r="1.66667" fill="#1B60C0"/>
<circle cx="15" cy="41.6667" r="1.66667" fill="#1B60C0"/>
<circle cx="8.33329" cy="41.6667" r="1.66667" fill="#1B60C0"/>
<circle cx="1.66667" cy="41.6667" r="1.66667" fill="#1B60C0"/>
<circle cx="48.3333" cy="35" r="1.66667" fill="#1B60C0"/>
<circle cx="41.6667" cy="35" r="1.66667" fill="#1B60C0"/>
<circle cx="35" cy="35" r="1.66667" fill="#1B60C0"/>
<circle cx="28.3333" cy="35" r="1.66667" fill="#1B60C0"/>
<circle cx="21.6667" cy="35" r="1.66667" fill="#1B60C0"/>
<circle cx="15" cy="35" r="1.66667" fill="#1B60C0"/>
<circle cx="8.33329" cy="35" r="1.66667" fill="#1B60C0"/>
<circle cx="1.66667" cy="35" r="1.66667" fill="#1B60C0"/>
<circle cx="48.3333" cy="28.3334" r="1.66667" fill="#1B60C0"/>
<circle cx="41.6667" cy="28.3334" r="1.66667" fill="#1B60C0"/>
<circle cx="35" cy="28.3334" r="1.66667" fill="#1B60C0"/>
<circle cx="28.3333" cy="28.3334" r="1.66667" fill="#1B60C0"/>
<circle cx="21.6667" cy="28.3334" r="1.66667" fill="#1B60C0"/>
<circle cx="15" cy="28.3334" r="1.66667" fill="#1B60C0"/>
<circle cx="8.33329" cy="28.3334" r="1.66667" fill="#1B60C0"/>
<circle cx="1.66667" cy="28.3334" r="1.66667" fill="#1B60C0"/>
<circle cx="48.3333" cy="21.6667" r="1.66667" fill="#1B60C0"/>
<circle cx="41.6667" cy="21.6667" r="1.66667" fill="#1B60C0"/>
<circle cx="35" cy="21.6667" r="1.66667" fill="#1B60C0"/>
<circle cx="28.3333" cy="21.6667" r="1.66667" fill="#1B60C0"/>
<circle cx="21.6667" cy="21.6667" r="1.66667" fill="#1B60C0"/>
<circle cx="15" cy="21.6667" r="1.66667" fill="#1B60C0"/>
<circle cx="8.33329" cy="21.6667" r="1.66667" fill="#1B60C0"/>
<circle cx="1.66667" cy="21.6667" r="1.66667" fill="#1B60C0"/>
<circle cx="48.3333" cy="15" r="1.66667" fill="#1B60C0"/>
<circle cx="41.6667" cy="15" r="1.66667" fill="#1B60C0"/>
<circle cx="35" cy="15" r="1.66667" fill="#1B60C0"/>
<circle cx="28.3333" cy="15" r="1.66667" fill="#1B60C0"/>
<circle cx="21.6667" cy="15" r="1.66667" fill="#1B60C0"/>
<circle cx="15" cy="15" r="1.66667" fill="#1B60C0"/>
<circle cx="8.33329" cy="15" r="1.66667" fill="#1B60C0"/>
<circle cx="1.66667" cy="15" r="1.66667" fill="#1B60C0"/>
<circle cx="48.3333" cy="8.33335" r="1.66667" fill="#1B60C0"/>
<circle cx="41.6667" cy="8.33335" r="1.66667" fill="#1B60C0"/>
<circle cx="35" cy="8.33335" r="1.66667" fill="#1B60C0"/>
<circle cx="28.3333" cy="8.33335" r="1.66667" fill="#1B60C0"/>
<circle cx="21.6667" cy="8.33335" r="1.66667" fill="#1B60C0"/>
<circle cx="15" cy="8.33335" r="1.66667" fill="#1B60C0"/>
<circle cx="8.33329" cy="8.33335" r="1.66667" fill="#1B60C0"/>
<circle cx="1.66667" cy="8.33335" r="1.66667" fill="#1B60C0"/>
<circle cx="48.3333" cy="1.66667" r="1.66667" fill="#1B60C0"/>
<circle cx="41.6667" cy="1.66667" r="1.66667" fill="#1B60C0"/>
<circle cx="35" cy="1.66667" r="1.66667" fill="#1B60C0"/>
<circle cx="28.3333" cy="1.66667" r="1.66667" fill="#1B60C0"/>
<circle cx="21.6667" cy="1.66667" r="1.66667" fill="#1B60C0"/>
<circle cx="15" cy="1.66667" r="1.66667" fill="#1B60C0"/>
<circle cx="8.33329" cy="1.66667" r="1.66667" fill="#1B60C0"/>
<circle cx="1.66667" cy="1.66667" r="1.66667" fill="#1B60C0"/>
</svg>
