<svg width="74" height="65" viewBox="0 0 74 65" fill="none" xmlns="http://www.w3.org/2000/svg">
<path d="M64.4938 31.8457C64.4938 37.5357 63.0015 42.8771 60.387 47.5C38.5 48 29 47.5 4.90922 47.5C2.2947 42.8771 0.802429 37.5357 0.802429 31.8457C0.802429 14.2578 15.0602 0 32.6481 0C50.236 0 64.4938 14.2578 64.4938 31.8457Z" fill="#D8D9DA"/>
<path d="M52.1357 12.3581L65.9196 19.4877L68.2962 22.3396L72.5739 28.9939V31.8457V36.1235L68.2962 43.7284L64.4937 46.5803L37.5 48L13.1604 46.5803L9.83321 46.105L8.8826 40.4013L8.40729 33.747L9.83321 28.9939L11.2591 19.4877L20.29 12.8334L26.9443 9.98154H39.3023L40.7283 11.4075L52.1357 12.3581Z" fill="white"/>
<path d="M34.8374 34.2402C30.0392 35.1689 27.911 40.741 30.8905 44.6878C32.8639 47.3191 35.8821 47.203 37.5073 44.3783C38.1651 43.2561 38.436 41.9018 38.939 40.5088C39.5195 40.6636 40.216 40.857 40.9125 41.0505C38.939 39.9671 39.0551 37.9162 38.436 36.1749C37.5847 33.8919 36.6947 31.5702 35.4565 29.5194C34.1796 27.4299 33.0187 27.546 30.697 28.2425C28.1818 28.9777 25.5119 29.2098 22.9193 29.6742C22.1067 29.829 21.2941 29.9837 20.5202 30.3707C23.4224 30.0998 26.3245 29.829 29.1492 29.5968C28.6849 31.9959 28.2979 34.3563 27.7562 36.7167C27.6788 37.0262 27.0597 37.4132 26.6727 37.4519C22.7645 37.6454 18.8176 37.8001 14.8708 37.8775C14.4451 37.8775 13.826 37.3358 13.6325 36.8715C13.2069 35.9428 13.0908 34.8593 12.6264 33.9693C12.3169 33.3502 11.5817 32.9633 11.04 32.4602C10.4982 33.0406 9.72432 33.5824 9.49215 34.2402C9.1439 35.285 9.1439 36.4458 8.98912 37.568C8.79565 37.568 8.64086 37.568 8.44739 37.568C8.44739 35.6332 8.37 33.6985 8.48608 31.8024C8.52478 31.4542 9.22129 30.9511 9.64693 30.835C18.5081 29.1325 27.3305 27.5073 36.3852 25.8047C37.546 29.2872 38.7069 32.7698 39.829 36.2523C40.8351 39.3866 40.8351 39.464 44.3563 39.1932C53.1401 38.5353 61.9626 37.8001 71.0172 37.3358C70.6689 37.568 70.282 37.8388 69.9337 38.071C69.3146 39.3092 68.6955 40.5475 68.0377 41.7857C68.1925 41.8631 68.3859 41.9405 68.5407 41.9792C69.0437 40.7023 69.5468 39.4253 70.0498 38.1871C70.3981 38.071 70.7463 37.9162 71.0946 37.8001C71.2494 37.9162 71.4428 38.0323 71.5976 38.1484C70.6302 39.851 69.6242 41.5535 68.6181 43.3335C75.8154 45.1135 57.1927 48.1548 38 48C34.5175 48.2709 32.1674 48.2091 28.6462 47.8221C23.2676 47.203 17.9277 46.5839 12.433 45.9261C12.8586 44.4944 13.2843 43.1787 13.7099 41.747C14.6773 41.8244 15.6447 41.9018 16.8055 41.9792C16.7281 42.8692 16.6507 43.6818 16.5346 44.7265C20.675 44.3783 24.738 44.0687 28.6462 43.7205C28.7623 41.6696 28.6075 39.7349 28.9944 37.9162C29.6909 34.7819 31.8966 33.1954 34.257 33.7759C34.4504 33.8146 34.5665 34.0854 34.76 34.2402H34.8374ZM43.1955 43.024C43.3116 43.1787 43.4277 43.2948 43.5824 43.4496C49.3093 43.4496 55.0362 43.4496 61.2274 43.4496C60.2213 42.7144 59.4474 42.4048 59.0604 41.8631C58.2091 40.5862 57.1257 40.5475 55.7327 40.741C51.9793 41.244 48.1871 41.5149 44.4337 41.9792C44.0081 42.0179 43.6211 42.637 43.1955 43.024ZM65.0582 41.2827C65.1742 41.3601 65.2903 41.4375 65.3677 41.5535C65.6773 41.0118 65.9481 40.4701 66.2577 39.9284C66.1416 39.851 66.0255 39.8123 65.9094 39.7349C65.5999 40.2379 65.329 40.741 65.0582 41.2827Z" fill="black"/>
<path d="M59.7956 17.2919C57.3578 17.2919 54.9201 17.2145 52.521 17.2919C46.3298 17.524 40.1773 17.8336 33.9861 18.0658C33.4443 18.1045 32.5931 17.911 32.3996 17.524C31.0453 15.2797 29.8457 12.958 28.414 10.2881C31.7031 10.1333 34.6826 9.86243 37.6621 9.86243C41.5316 9.86243 45.4011 9.93982 49.2319 10.172C50.4314 10.2494 51.7471 10.7137 52.7918 11.4102C55.2683 13.0354 57.5513 14.8541 59.9504 16.634C59.9117 16.8662 59.873 17.0597 59.7956 17.2919ZM56.3131 15.4732L56.4292 15.3958L56.2744 15.4732C54.1462 13.9641 52.2114 11.6037 49.8897 11.1781C46.1363 10.4428 42.1507 10.9846 38.8616 10.9846C44.4337 11.6424 50.8184 11.8359 56.3131 15.4732Z" fill="black"/>
<path d="M73.4162 33.3891C73.3002 35.0143 72.5263 36.0204 70.4754 36.1751C62.6203 36.6782 54.804 37.336 46.9876 37.8777C46.1363 37.9551 45.1689 37.8003 44.3563 37.4908C43.8533 37.2973 43.5824 36.6395 42.9633 35.9043C42.9246 36.5621 42.8859 37.2973 42.8472 38.1873C40.9512 38.4194 41.3381 36.3686 40.332 35.2852C51.5536 34.6273 62.4656 34.0082 73.4162 33.3891ZM69.7789 35.6334C69.8563 35.5947 69.9724 35.5947 70.0498 35.556C69.9724 35.3238 69.9337 35.053 69.8563 34.8208C69.7402 34.8595 69.6628 34.8595 69.5467 34.8982C69.6241 35.1304 69.7015 35.4012 69.7789 35.6334Z" fill="black"/>
<path d="M70.94 29.4807C71.2882 31.8024 70.437 32.6924 68.3474 32.7698C63.5106 33.0019 58.7124 33.3889 53.8755 33.6597C53.1403 33.6984 52.4051 33.5824 51.6699 33.118C55.0751 32.8471 58.4415 32.5376 61.8467 32.2667C61.8467 32.228 61.8467 32.228 61.8467 32.1893C58.2867 32.1893 54.7655 32.1893 51.2056 32.1893C51.2056 32.0346 51.1669 31.8798 51.1669 31.725C54.6107 31.4928 58.0546 31.2607 61.4984 31.0285C61.4984 30.9898 61.4984 30.9511 61.4984 30.8737C57.9385 30.8737 54.4172 30.8737 50.8573 30.8737C50.8573 30.7189 50.8573 30.6028 50.8573 30.4481C57.5128 30.1385 64.1684 29.8289 70.94 29.4807Z" fill="black"/>
<path d="M28.9172 19.9618C27.3694 19.8457 25.8216 19.7683 24.4286 19.691C27.0598 18.4527 29.5363 18.9171 30.2328 21.0453C27.4468 21.7418 24.6607 22.477 21.5651 23.2509C21.8747 19.807 21.9908 16.5567 22.5325 13.3837C22.6486 12.7646 24.2351 12.3002 25.2411 12.0293C25.6668 11.9133 26.5181 12.3776 26.7502 12.8032C27.8337 14.5445 28.7624 16.3632 29.8458 18.3366C28.4528 18.6075 27.5628 18.6849 26.8663 17.2919C26.1311 15.8215 24.7768 16.518 23.616 16.8662C22.3003 17.2532 22.339 18.3366 22.4551 19.3814C22.6099 20.7744 23.6933 20.8131 24.7768 20.8131C26.1311 20.8131 27.4468 20.8131 28.8011 20.8131C28.8398 20.5035 28.8785 20.2327 28.9172 19.9618Z" fill="black"/>
<path d="M38.7458 30.6416C42.0349 30.6416 45.1305 30.603 48.1874 30.6416C50.3543 30.6803 49.5417 32.7312 50.6638 34.0468C46.9878 34.0468 43.6601 34.2403 40.4097 33.892C39.7132 33.7759 39.2101 31.6477 38.7458 30.6416Z" fill="black"/>
<path d="M13.7873 38.7675C18.6242 38.7675 23.3063 38.7675 28.1818 38.7675C28.1818 39.6575 28.1818 40.5862 28.1818 41.4375C25.1636 41.4375 22.1067 41.4375 19.0498 41.4375C18.005 41.4375 16.999 41.3214 15.9542 41.2827C13.9421 41.2053 13.9421 41.2053 13.7873 38.7675Z" fill="black"/>
<path d="M39.4809 21.084C39.597 21.084 39.7518 21.0066 39.8678 21.0453C45.7495 23.6765 51.9407 23.0187 58.0932 22.7866C60.9953 22.6705 63.8974 22.7092 66.7609 22.7092C67.3026 22.7092 67.8056 22.8253 68.3474 22.864C68.3474 23.0574 68.386 23.2509 68.386 23.4057C67.7669 23.4831 67.1091 23.5992 66.49 23.6379C60.9566 23.87 55.4232 24.2183 49.8898 24.257C47.1038 24.257 44.2791 23.87 41.5704 23.3283C40.7578 23.1735 40.1774 21.8579 39.4809 21.084C39.4809 21.0453 39.4809 21.084 39.4809 21.084Z" fill="black"/>
<path d="M14.097 25.0696C14.2131 19.6136 14.9096 18.8397 20.5977 17.9497C20.443 19.6523 20.3269 21.2774 20.0947 22.9026C20.056 23.2509 19.6304 23.7152 19.2821 23.7926C17.5795 24.2957 15.8383 24.6439 14.097 25.0696Z" fill="black"/>
<path d="M11.9302 19.1878C12.5493 19.0717 13.1297 18.9169 13.7488 18.8008C13.8262 18.9556 13.9423 19.1104 14.0197 19.2652C13.1297 19.7682 12.2397 20.2712 10.8854 21.0451C12.0462 20.7743 12.7041 20.5808 13.4006 20.426C13.981 24.5277 13.2845 25.6499 9.56976 26.3077C10.0728 23.986 9.49237 21.5095 11.2336 19.536L11.1563 19.6134C11.4271 19.4587 11.7367 19.3039 12.0075 19.1878H11.9302Z" fill="black"/>
<path d="M70.0498 25.8048C69.779 25.9983 69.4694 26.3852 69.1985 26.4239C62.5043 26.8495 55.7714 27.2365 49.0771 27.5847C49.0384 27.3913 48.9998 27.1978 48.9998 27.0043C49.4254 26.8495 49.851 26.6174 50.3154 26.5787C56.6614 26.2691 63.0073 25.9596 69.392 25.6887C69.6242 25.6887 69.895 25.8048 70.1272 25.8435L70.0498 25.8048Z" fill="black"/>
<path d="M35.4181 23.4444C31.239 24.3344 27.1761 25.2244 23.1131 26.1144C23.0357 25.9596 22.9583 25.8048 22.8422 25.65C23.4226 25.3018 23.9644 24.76 24.6222 24.6053C33.8703 22.0127 34.1412 22.0127 35.4181 23.4444Z" fill="black"/>
<path d="M28.7621 36.562C28.3365 33.4277 29.2652 30.8738 30.8517 30.3321C32.5156 29.7904 33.9086 30.4869 35.2242 32.5764C31.8578 31.7251 30.0391 33.5051 28.7621 36.562Z" fill="black"/>
<path d="M68.6956 24.9535C62.311 25.2244 55.965 25.4953 49.5803 25.7661C49.5803 25.534 49.5803 25.2631 49.5416 25.0309C55.9263 24.7987 62.2723 24.5279 68.6569 24.2957C68.6569 24.5279 68.6569 24.7214 68.6956 24.9535Z" fill="black"/>
<path d="M19.3208 12.184C21.6039 11.0232 23.8869 9.82365 26.2086 8.74019C26.7503 8.46932 27.4468 8.50801 28.1046 8.50801C32.0902 8.50801 36.0758 8.50801 40.0614 8.50801C40.0614 8.74018 40.0614 8.93366 40.0614 9.16583C37.5849 9.16583 35.1084 9.28192 32.6319 9.12714C28.4529 8.85627 24.5834 9.78495 20.946 11.7584C20.4817 12.0293 19.8626 12.0293 19.3208 12.1453C19.2822 12.1066 19.3208 12.184 19.3208 12.184Z" fill="black"/>
<path d="M11.5044 28.5908C16.4187 26.2691 21.1781 25.2244 22.4551 26.2691C18.663 27.043 15.0643 27.8169 11.5044 28.5908Z" fill="black"/>
<path d="M9.6082 41.5537C8.79561 40.3541 7.55737 39.6576 9.25995 38.6515C9.49212 38.4968 9.49212 37.8776 9.53081 37.452C9.6469 36.6781 9.6469 35.9042 9.84037 35.169C9.99515 34.666 10.4208 34.279 10.6917 33.8147C11.1173 34.1242 11.5816 34.4338 11.9299 34.666C11.3108 35.8268 10.653 36.7942 10.3047 37.8389C9.95646 38.9224 9.87907 40.0446 9.6082 41.5537Z" fill="black"/>
<path d="M41.6866 24.1795C42.3831 24.2182 43.0796 24.2569 43.7761 24.2956C43.9696 25.3403 44.1244 26.3077 44.3565 27.4685C43.3891 27.3912 42.3057 27.3525 41.2609 27.2751C41.4157 26.1916 41.5318 25.2629 41.6866 24.1795Z" fill="black"/>
<path d="M36.5787 38.7675C37.7008 39.8897 37.8169 41.9405 36.8109 43.6818C35.9596 45.1522 34.9535 45.5779 33.4057 45.0748C36.3078 43.9914 37.2752 42.0566 36.5787 38.7675Z" fill="black"/>
<path d="M14.7162 18.8396C16.3027 17.0209 18.6631 16.6727 20.714 15.4731C20.5205 17.0596 19.1275 17.8335 14.7162 18.8396Z" fill="black"/>
<path d="M66.1418 28.5134C67.2639 28.436 68.4248 28.4747 69.5469 28.2426C70.2821 28.0878 71.8299 28.5521 71.1721 26.7722C71.6365 26.6948 72.2943 26.4239 72.4878 26.6174C72.8747 27.043 73.0295 27.7008 73.3778 28.4747C70.7852 28.6295 68.5022 28.7843 66.1805 28.9391C66.1805 28.7843 66.1418 28.6682 66.1418 28.5134Z" fill="black"/>
<path d="M71.5202 32.2669C71.9072 31.1447 70.9011 29.1713 73.3389 29.326C73.9967 32.1121 73.8032 32.499 71.4815 32.2669H71.5202Z" fill="black"/>
<path d="M21.2166 14.3124C19.2431 15.3184 17.3084 16.2858 15.3349 17.2919C15.2189 17.0984 15.1028 16.9049 15.0254 16.7501C16.6893 15.2797 18.9336 14.738 20.8683 13.6932C20.9457 13.848 21.1005 14.0802 21.2166 14.3124Z" fill="black"/>
<path d="M11.2334 19.4976C10.3434 19.575 9.91775 19.3041 10.8464 18.6463C11.7751 17.9885 12.8199 17.4854 13.7872 16.905C13.9033 17.0598 14.0581 17.2146 14.1742 17.3693C13.439 17.9498 12.7038 18.5689 11.9686 19.1493L12.046 19.0719C11.7751 19.2267 11.4655 19.3815 11.1947 19.4976H11.2334Z" fill="black"/>
<path d="M70.166 22.477C69.2761 22.0901 68.3861 21.6644 67.4574 21.2388C67.4961 21.0066 67.5348 20.5423 67.6122 20.0779C67.767 19.9618 67.9217 19.8458 68.0378 19.7297C68.773 20.6584 69.4695 21.5483 70.166 22.477Z" fill="black"/>
<path d="M47.4134 27.0429C47.1812 26.0368 47.1038 25.5338 46.9103 24.6825C47.6455 24.9534 48.1873 25.1469 48.729 25.3016C48.3421 25.8047 47.9938 26.269 47.4134 27.0429Z" fill="black"/>
<path d="M63.7037 29.0937C62.775 29.0937 61.8463 29.0937 60.9177 29.0937C60.9177 29.055 60.9177 29.0163 60.9177 28.9776C61.8463 28.9776 62.7363 28.9776 63.665 28.9776C63.665 29.0163 63.7037 29.055 63.7037 29.0937Z" fill="black"/>
<path d="M12.9748 40.5088C12.9748 40.9344 12.9748 41.3601 12.9748 41.7857H12.9361C12.9361 41.3601 12.9361 40.9344 12.9361 40.5088H12.9748Z" fill="black"/>
<path d="M38.5134 25.1468C38.6295 24.8373 38.7455 24.489 38.8616 24.1795C38.939 24.4116 39.0938 24.6051 39.0938 24.8373C39.0938 24.9921 38.9777 25.1855 38.9003 25.3403C38.7842 25.2629 38.6681 25.2242 38.5134 25.1468Z" fill="black"/>
<path d="M12.7813 43.6432C12.5878 43.9141 12.3943 44.185 12.2009 44.4558C12.1235 44.4171 12.0461 44.3784 11.9687 44.3011C12.1235 43.9915 12.3169 43.7206 12.4717 43.4111C12.5878 43.4885 12.7039 43.5659 12.7813 43.6432Z" fill="black"/>
<path d="M38.2427 20.581C38.6296 20.7357 39.0553 20.8905 39.4422 21.084L39.4809 21.0453C39.0553 20.9292 38.6683 20.7744 38.2427 20.6584V20.581Z" fill="black"/>
<path d="M34.7603 34.2789C34.915 34.3176 35.0698 34.395 35.2246 34.4337C35.1859 34.4724 35.1085 34.5498 35.0698 34.5498C34.9537 34.4337 34.8763 34.3563 34.799 34.2402C34.8376 34.2402 34.7603 34.2789 34.7603 34.2789Z" fill="black"/>
<path d="M36.5788 38.7677C36.6175 38.6903 36.6175 38.6129 36.6562 38.5355C36.6175 38.5742 36.5788 38.6129 36.5788 38.6516C36.5401 38.6903 36.5788 38.729 36.5788 38.7677Z" fill="black"/>
<path d="M38.2812 20.6584C38.2425 20.6584 38.2425 20.6197 38.2038 20.6197H38.2425C38.2425 20.581 38.2812 20.6584 38.2812 20.6584Z" fill="black"/>
<path d="M71.4429 32.2668L71.559 32.3441L71.4816 32.3055C71.5203 32.2668 71.4429 32.2668 71.4429 32.2668Z" fill="black"/>
<path d="M19.7838 52.9636C19.8709 53.167 19.8971 53.3819 19.8622 53.6085C19.8274 53.8292 19.7344 54.018 19.5834 54.1749L12.1069 62.514H19.7664V64.7796H9.55373C9.33298 64.7796 9.12675 64.7186 8.93504 64.5966C8.74915 64.4688 8.60973 64.3033 8.51678 64.1C8.41802 63.8966 8.38607 63.6846 8.42093 63.4638C8.46159 63.2431 8.55454 63.0514 8.69977 62.8887L16.1937 54.5496H8.51678V52.284H18.7468C18.9676 52.284 19.1709 52.3479 19.3568 52.4757C19.5485 52.5977 19.6908 52.7603 19.7838 52.9636Z" fill="#1B60C0"/>
<path d="M25.2387 58.4272C25.2387 58.6712 25.1922 58.9007 25.0993 59.1156C25.0063 59.3306 24.8785 59.5165 24.7158 59.6733C24.559 59.8302 24.3731 59.9551 24.1582 60.048C23.949 60.1352 23.7254 60.1787 23.4872 60.1787C23.2432 60.1787 23.0137 60.1352 22.7988 60.048C22.5897 59.9551 22.4067 59.8302 22.2498 59.6733C22.093 59.5165 21.9681 59.3306 21.8751 59.1156C21.788 58.9007 21.7444 58.6712 21.7444 58.4272C21.7444 58.1949 21.788 57.9741 21.8751 57.765C21.9681 57.5558 22.093 57.3729 22.2498 57.216C22.4067 57.0534 22.5897 56.9255 22.7988 56.8326C23.0137 56.7397 23.2432 56.6932 23.4872 56.6932C23.7254 56.6932 23.949 56.7397 24.1582 56.8326C24.3731 56.9255 24.559 57.0534 24.7158 57.216C24.8785 57.3729 25.0063 57.5558 25.0993 57.765C25.1922 57.9741 25.2387 58.1949 25.2387 58.4272Z" fill="#1B60C0"/>
<path d="M40.2614 62.0348C40.2614 62.3136 40.212 62.6128 40.1132 62.9323C40.0203 63.2518 39.8634 63.5481 39.6427 63.8211C39.4277 64.0941 39.146 64.3236 38.7974 64.5095C38.4489 64.6896 38.0219 64.7796 37.5165 64.7796H28.9159C28.7533 64.7796 28.6022 64.7506 28.4628 64.6925C28.3234 64.6344 28.2014 64.556 28.0968 64.4572C27.9981 64.3527 27.9196 64.2307 27.8615 64.0912C27.8035 63.9518 27.7744 63.8008 27.7744 63.6381V53.4255C27.7744 53.2686 27.8035 53.1205 27.8615 52.9811C27.9196 52.8417 27.9981 52.7197 28.0968 52.6151C28.2014 52.5105 28.3234 52.4292 28.4628 52.3711C28.6022 52.313 28.7533 52.284 28.9159 52.284H36.497C36.7758 52.284 37.075 52.3333 37.3945 52.4321C37.714 52.5309 38.0103 52.6906 38.2833 52.9114C38.5622 53.1263 38.7916 53.4081 38.9717 53.7566C39.1576 54.1052 39.2506 54.5321 39.2506 55.0375V55.4645C39.2506 55.8654 39.1837 56.2981 39.0501 56.7629C38.9165 57.2218 38.7016 57.6575 38.4053 58.07C38.6609 58.2268 38.8991 58.4156 39.1198 58.6364C39.3464 58.8571 39.5439 59.1127 39.7124 59.4032C39.8809 59.6936 40.0145 60.0219 40.1132 60.3879C40.212 60.7538 40.2614 61.1576 40.2614 61.5991V62.0348ZM37.9958 61.5991C37.9958 61.3028 37.9493 61.0385 37.8563 60.8061C37.7634 60.5679 37.6327 60.3646 37.4642 60.1961C37.2957 60.0277 37.0924 59.8999 36.8542 59.8127C36.6161 59.7198 36.3488 59.6733 36.0526 59.6733H30.9463V57.3903H35.033C35.3293 57.3903 35.5965 57.3467 35.8347 57.2596C36.0729 57.1666 36.2762 57.0359 36.4447 56.8675C36.6132 56.699 36.741 56.4986 36.8281 56.2662C36.9211 56.028 36.9675 55.7608 36.9675 55.4645V55.0375C36.9675 54.7122 36.8107 54.5496 36.497 54.5496H30.04V62.514H37.5165C37.5572 62.514 37.6065 62.5111 37.6646 62.5053C37.7227 62.4995 37.775 62.4821 37.8215 62.453C37.868 62.424 37.9086 62.3746 37.9435 62.3049C37.9783 62.2352 37.9958 62.1393 37.9958 62.0173V61.5991Z" fill="#1B60C0"/>
<path d="M54.4127 63.6381C54.4127 63.8008 54.3836 63.9518 54.3255 64.0912C54.2674 64.2307 54.1861 64.3527 54.0815 64.4572C53.977 64.556 53.855 64.6344 53.7156 64.6925C53.5761 64.7506 53.428 64.7796 53.2712 64.7796H48.1648C47.6827 64.7796 47.1947 64.7274 46.7009 64.6228C46.2071 64.5182 45.7279 64.3585 45.2631 64.1435C44.8042 63.9228 44.3714 63.6439 43.9648 63.307C43.5581 62.9701 43.2008 62.5721 42.8929 62.1132C42.5909 61.6485 42.3527 61.1198 42.1784 60.5273C42.0041 59.9289 41.917 59.2638 41.917 58.5318V52.284H44.1826V58.5318C44.1826 59.1708 44.2697 59.7111 44.444 60.1526C44.6241 60.5941 44.8507 60.963 45.1237 61.2592C45.3967 61.5555 45.6959 61.7879 46.0212 61.9563C46.3465 62.1248 46.6544 62.2497 46.9449 62.331C47.2412 62.4124 47.4997 62.4647 47.7204 62.4879C47.947 62.5053 48.0951 62.514 48.1648 62.514H52.1471V52.284H54.4127V63.6381Z" fill="#1B60C0"/>
<path d="M69.0607 61.1024C69.0607 61.5497 69.0026 61.9534 68.8864 62.3136C68.776 62.668 68.6279 62.9817 68.442 63.2547C68.2561 63.5277 68.0382 63.7601 67.7884 63.9518C67.5386 64.1435 67.2801 64.3004 67.0129 64.4224C66.7457 64.5444 66.4726 64.6344 66.1938 64.6925C65.9208 64.7506 65.6623 64.7796 65.4183 64.7796H56.6783V62.514H65.4183C65.854 62.514 66.1909 62.3862 66.4291 62.1306C66.6731 61.875 66.7951 61.5323 66.7951 61.1024C66.7951 60.8933 66.7631 60.7016 66.6992 60.5273C66.6353 60.353 66.5424 60.202 66.4204 60.0742C66.3042 59.9464 66.1589 59.8476 65.9847 59.7779C65.8162 59.7082 65.6274 59.6733 65.4183 59.6733H60.2074C59.8414 59.6733 59.4464 59.6094 59.0223 59.4816C58.5982 59.348 58.2032 59.136 57.8372 58.8455C57.477 58.555 57.175 58.1745 56.931 57.704C56.6928 57.2334 56.5737 56.6583 56.5737 55.9786C56.5737 55.299 56.6928 54.7268 56.931 54.262C57.175 53.7915 57.477 53.411 57.8372 53.1205C58.2032 52.8242 58.5982 52.6122 59.0223 52.4844C59.4464 52.3508 59.8414 52.284 60.2074 52.284H67.9191V54.5496H60.2074C59.7775 54.5496 59.4406 54.6803 59.1966 54.9417C58.9584 55.2031 58.8393 55.5488 58.8393 55.9786C58.8393 56.4143 58.9584 56.76 59.1966 57.0156C59.4406 57.2654 59.7775 57.3903 60.2074 57.3903H65.4183H65.4357C65.6797 57.3961 65.9382 57.431 66.2112 57.4949C66.4843 57.5529 66.7544 57.6459 67.0216 57.7737C67.2947 57.9015 67.5532 58.0642 67.7972 58.2617C68.0411 58.4534 68.2561 58.6857 68.442 58.9588C68.6337 59.2318 68.7847 59.5455 68.8951 59.8999C69.0055 60.2542 69.0607 60.6551 69.0607 61.1024Z" fill="#1B60C0"/>
</svg>
