<svg width="90" height="90" viewBox="0 0 90 90" fill="none" xmlns="http://www.w3.org/2000/svg">
<g filter="url(#filter0_d)">
<circle cx="45" cy="35" r="30" fill="white"/>
<circle cx="45" cy="35" r="32.5" stroke="black" stroke-opacity="0.07" stroke-width="5"/>
</g>
<path d="M45 21.4933C39.4859 21.4933 35 26.0193 35 31.5823V39.6165C35 45.1795 39.4859 49.7053 45 49.7053C50.5138 49.7053 55 45.1932 55 39.6474V31.5823C55 26.0193 50.5138 21.4933 45 21.4933ZM53.1191 39.6474C53.1191 44.1632 49.4771 47.8369 45 47.8369C40.5232 47.8369 36.8809 44.1492 36.8809 39.6162V31.5823C36.8809 27.0494 40.5232 23.3616 45 23.3616C49.4771 23.3616 53.1191 27.0494 53.1191 31.5823V39.6474Z" fill="#1B60C0"/>
<path d="M45 29.2158C44.4806 29.2158 44.0596 29.634 44.0596 30.15V33.4196C44.0596 33.9355 44.4806 34.3538 45 34.3538C45.5195 34.3538 45.9405 33.9355 45.9405 33.4196V30.15C45.9405 29.634 45.5195 29.2158 45 29.2158Z" fill="#1B60C0"/>
<defs>
<filter id="filter0_d" x="0" y="0" width="90" height="90" filterUnits="userSpaceOnUse" color-interpolation-filters="sRGB">
<feFlood flood-opacity="0" result="BackgroundImageFix"/>
<feColorMatrix in="SourceAlpha" type="matrix" values="0 0 0 0 0 0 0 0 0 0 0 0 0 0 0 0 0 0 127 0"/>
<feOffset dy="10"/>
<feGaussianBlur stdDeviation="5"/>
<feColorMatrix type="matrix" values="0 0 0 0 0 0 0 0 0 0 0 0 0 0 0 0 0 0 0.03 0"/>
<feBlend mode="normal" in2="BackgroundImageFix" result="effect1_dropShadow"/>
<feBlend mode="normal" in="SourceGraphic" in2="effect1_dropShadow" result="shape"/>
</filter>
</defs>
</svg>
