<svg width="30" height="30" viewBox="0 0 30 30" fill="none" xmlns="http://www.w3.org/2000/svg">
<path d="M18.0307 27.0637C17.7834 27.125 17.5311 27.1794 17.2808 27.2252C16.6264 27.346 16.1937 27.9712 16.3147 28.6219C16.3745 28.942 16.5575 29.2086 16.806 29.3826C17.0621 29.5616 17.388 29.6425 17.7202 29.5811C18.0183 29.5262 18.3187 29.4615 18.6136 29.3884C19.2598 29.2287 19.6535 28.5784 19.4923 27.9368C19.3315 27.2946 18.6774 26.9039 18.0307 27.0637Z" fill="#9DA4AF"/>
<path d="M26.9492 11.0065C27.0337 11.2594 27.195 11.4659 27.3987 11.6085C27.7008 11.8199 28.096 11.891 28.4732 11.7671C29.1056 11.5585 29.4482 10.8811 29.239 10.2532C29.1437 9.96699 29.0379 9.67987 28.9253 9.4003C28.6779 8.78594 27.9764 8.48683 27.3576 8.73258C26.7395 8.97819 26.4383 9.67525 26.6859 10.2898C26.7805 10.5248 26.8692 10.766 26.9492 11.0065Z" fill="#9DA4AF"/>
<path d="M21.9496 25.3534C21.7369 25.4929 21.5173 25.6279 21.2961 25.7545C20.719 26.0852 20.5213 26.818 20.8541 27.391C20.9444 27.5469 21.0648 27.6743 21.2033 27.7717C21.5754 28.0317 22.0806 28.0707 22.5013 27.8299C22.7643 27.6792 23.0258 27.519 23.2792 27.3525C23.8347 26.9879 23.9876 26.2446 23.6204 25.6925C23.2532 25.1402 22.5053 24.9885 21.9496 25.3534Z" fill="#9DA4AF"/>
<path d="M29.9889 14.3522C29.9627 13.6909 29.402 13.1762 28.7362 13.202C28.0712 13.2281 27.5527 13.7852 27.5788 14.4463C27.5888 14.699 27.5914 14.9555 27.5855 15.208C27.5762 15.6227 27.7803 15.9924 28.0976 16.2146C28.2866 16.3468 28.516 16.4268 28.7647 16.4324C29.4304 16.4471 29.982 15.9226 29.9968 15.261C30.0034 14.9593 30.0009 14.6536 29.9889 14.3522Z" fill="#9DA4AF"/>
<path d="M26.7524 22.2019C26.2187 21.804 25.4635 21.912 25.0637 22.4413C24.9106 22.644 24.7494 22.8442 24.5843 23.0369C24.1529 23.5405 24.2138 24.2968 24.7207 24.7256C24.7496 24.75 24.7788 24.7723 24.8091 24.7934C25.313 25.1463 26.0134 25.0652 26.4208 24.5902C26.618 24.3602 26.8102 24.1211 26.9931 23.879C27.3929 23.3498 27.2847 22.5991 26.7524 22.2019Z" fill="#9DA4AF"/>
<path d="M28.5252 17.8712C27.8896 17.6733 27.2128 18.0247 27.0137 18.6561C26.9374 18.8973 26.853 19.1396 26.7618 19.377C26.5615 19.8995 26.7534 20.4744 27.1932 20.7825C27.2739 20.8388 27.3628 20.8866 27.4593 20.9228C28.0816 21.1587 28.7784 20.8486 29.0156 20.2302C29.1238 19.9479 29.2243 19.6596 29.3152 19.3728C29.5141 18.7414 29.1606 18.0692 28.5252 17.8712Z" fill="#9DA4AF"/>
<path d="M12.769 27.2361C11.6907 27.0438 10.6564 26.7164 9.67561 26.2596C9.664 26.2536 9.65362 26.2468 9.64143 26.2413C9.4103 26.1332 9.17956 26.0174 8.95591 25.8965C8.95514 25.8956 8.95372 25.895 8.9525 25.8945C8.54216 25.67 8.14168 25.4217 7.75262 25.1496C2.07945 21.1799 0.715389 13.3656 4.712 7.73033C5.58104 6.5054 6.63272 5.48348 7.80518 4.67353C7.81963 4.66354 7.83407 4.65361 7.84839 4.64355C11.98 1.81576 17.59 1.62519 21.9771 4.531L21.0349 5.88333C20.7729 6.25974 20.9341 6.53404 21.3926 6.49304L25.4855 6.12906C25.9447 6.08806 26.2193 5.69353 26.0958 5.25306L24.9967 1.3195C24.8737 0.878522 24.5586 0.825737 24.2964 1.20208L23.352 2.55762C20.1325 0.410832 16.271 -0.407769 12.4382 0.252416C12.0522 0.31878 11.6716 0.400006 11.2962 0.494556C11.2933 0.495068 11.291 0.495389 11.2887 0.495901C11.2741 0.499424 11.2594 0.504101 11.2453 0.508008C7.94029 1.35108 5.05669 3.26585 2.99905 5.99781C2.98171 6.01824 2.96384 6.03823 2.94746 6.06045C2.87904 6.15199 2.81113 6.24565 2.74465 6.3393C2.63592 6.49278 2.52874 6.65011 2.4262 6.80744C2.41337 6.8264 2.40357 6.84568 2.39235 6.86483C0.694366 9.47848 -0.124637 12.5001 0.015819 15.5763C0.0161414 15.5864 0.015561 15.5966 0.015819 15.607C0.029426 15.9075 0.0534157 16.2122 0.0859824 16.5121C0.0877236 16.5314 0.0920443 16.5497 0.0953332 16.5691C0.128996 16.8707 0.171236 17.173 0.224181 17.4752C0.762273 20.5588 2.22668 23.3337 4.42102 25.4927C4.42612 25.4978 4.43141 25.5033 4.43657 25.5086C4.43837 25.5105 4.44037 25.5116 4.44211 25.5134C5.03166 26.091 5.67294 26.6253 6.36342 27.1084C8.17038 28.3731 10.1825 29.2091 12.3434 29.5943C12.999 29.7114 13.6253 29.2778 13.743 28.6269C13.8605 27.9754 13.4244 27.3528 12.769 27.2361Z" fill="#9DA4AF"/>
<path d="M14.2603 5.25085C13.721 5.25085 13.2842 5.68518 13.2842 6.22013V15.8768L22.1751 20.4424C22.3182 20.516 22.4715 20.5507 22.6222 20.5507C22.9754 20.5507 23.3165 20.3596 23.4899 20.0263C23.7372 19.5506 23.55 18.9662 23.0711 18.7206L15.2354 14.6965V6.22013C15.2353 5.68518 14.799 5.25085 14.2603 5.25085Z" fill="#9DA4AF"/>
</svg>
